<?xml version="1.0" encoding="UTF-8"?>
<svg id="Layer_2" data-name="Layer 2" xmlns="http://www.w3.org/2000/svg" width="18" height="224" viewBox="0 0 18 224" fill="none">
  <defs>
    <style>
      .cls-1 {
        fill: #5b5651;
      }
    </style>
  </defs>
  <path class="cls-1" d="M8.78,70.3c-1.8,0-3-.8-3.2-2.2.1-.3.4-.5.7-.5s.6.2.8.9l.4,1.5-.6-.5c.5.3.9.4,1.6.4,1.7,0,2.6-1,2.6-2.6s-.9-2.6-2.7-2.6h-.7v-.5h.6c1.4,0,2.4-.9,2.4-2.5s-.7-2.2-2-2.2-1,.1-1.6.4l.7-.4-.4,1.4c-.1.6-.4.7-.8.7s-.5-.1-.6-.4c.2-1.5,1.6-2.2,3.1-2.2s3.1,1.1,3.1,2.6-1,2.6-3.2,2.9v-.2c2.5.1,3.6,1.3,3.6,3s-1.5,3.1-3.7,3.1l-.1-.1Z"/>
  <path class="cls-1" d="M2.18,118v-.4l2.1-.2h1.3l2,.3v.4H2.18v-.1ZM4.18,118v-10.2l-2.1.3v-.5l3.4-.9.2.2v11h-1.6l.1.1ZM12.38,118.2c-1.9,0-3.6-1.7-3.6-5.7s1.7-5.7,3.6-5.7,3.6,1.7,3.6,5.7-1.7,5.7-3.6,5.7ZM12.38,117.8c1.1,0,2.1-1.2,2.1-5.3s-1.1-5.2-2.1-5.2-2.1,1.2-2.1,5.2,1,5.3,2.1,5.3Z"/>
  <path class="cls-1" d="M2.28,166.1v-.4l2.1-.2h1.3l2,.3v.4H2.28v-.1ZM4.28,166.1v-10.2l-2.1.3v-.5l3.4-.9.2.2v11h-1.6l.1.1ZM10.58,166.1h-.1c0-.1,4.8-10.2,4.8-10.2l-.2.7v-.2h-5.9v-1.2h6.6v.8l-3.9,10.2h-1.3v-.1Z"/>
  <path class="cls-1" d="M1.08,214.2v-.9c1-1.1,2-2.3,2.7-3.1,1.6-1.9,2.3-2.9,2.3-4.3s-.8-2.4-2.1-2.4-1,.1-1.6.5l.6-.4-.4,1.5c-.1.7-.4.9-.8.9s-.6-.2-.7-.5c.2-1.6,1.7-2.4,3.3-2.4s3.1,1.1,3.1,2.9-1,2.5-3.4,4.8c-.5.5-1.4,1.5-2.4,2.5v-.5c.1,0,.1.2.1.2h6.1v1.2H.98h.1ZM13.78,214.4v-10.4h-.2l.5-.2-2.1,3.3-2.3,3.5v-.5c.1,0,.1.2.1.2h7v1h-7.6v-.8l4.9-7.5h1v11.4h-1.3Z"/>
  <path class="cls-1" d="M5.08,22.1L1.88,11h1.9l2.5,9.4h-.3v-.2l2.8-9.2h1l2.7,9.5h-.3v-.2l2.5-9.2h.7l-3.1,11.1h-1l-2.8-9.3h.3v.2l-2.8,9.1h-1l.1-.1ZM.88,11.5v-.5h4.6v.5l-2.1.2h-.4l-2.1-.2ZM7.08,11.5v-.5h4.5v.5l-1.9.2h-.7l-1.9-.2ZM13.08,11.5v-.5h3.6v.5l-1.6.2h-.3l-1.6-.2h-.1Z"/>
</svg>