<?xml version="1.0" encoding="UTF-8"?>
<svg width="18" height="272" id="Layer_1" data-name="Layer 1" xmlns="http://www.w3.org/2000/svg" viewBox="0 0 18 272" fill="none">
  <defs>
    <style>
      .cls-1 {
        fill: #5b5651;
      }
    </style>
  </defs>
  <path class="cls-1" d="M2.1,22v-.5l1.7-.2h.3l1.8.2v.5s-3.8,0-3.8,0ZM2.3,11.5v-.5h2.2v.7h-.2s-2-.2-2-.2ZM3.7,22v-11h.6v5.5c.1,0,.1,5.6.1,5.6h-.7v-.1ZM8.1,22l-4.1-10.5h-.1v-.6h1.7l3.6,9.2h-.4v-.2l3.6-8.9h.7v.6h-.3l-.2.4-3.9,10s-.6,0-.6,0ZM11,22v-.5l2.2-.2h.4l2.2.2v.5s-4.8,0-4.8,0ZM12.4,22v-11h1.8v11h-1.9.1ZM13.4,11.6v-.7h2.4v.5l-2.2.2h-.2Z"/>
  <path class="cls-1" d="M6.3,70.1v-.4l2.1-.2h1.3l1.9.3v.4h-5.4l.1-.1ZM8.3,70.1v-10.2l-2.1.3v-.5l3.4-.9.2.2v11h-1.6l.1.1Z"/>
  <path class="cls-1" d="M8.8,118.2c-2.2,0-3.3-1.1-3.3-2.6s.9-2.3,2.8-3h0l.3.1c-1.3.8-1.8,1.6-1.8,2.7s.8,2.3,2.1,2.3,2.1-.8,2.1-2-.6-2-2.7-2.9c-1.8-.8-2.5-1.9-2.5-3.3s1.4-2.8,3.2-2.8,3,1.1,3,2.5-.7,2.1-2.5,2.9h0l-.3-.1c1.1-.8,1.6-1.6,1.6-2.8s-.6-2-1.8-2-1.8.7-1.8,1.9.5,1.9,2.4,2.8c2.1.9,2.9,1.9,2.9,3.4s-1.4,2.9-3.5,2.9h-.2Z"/>
  <path class="cls-1" d="M2.1,166v-.4l2.1-.2h1.3l2,.3v.4H2.1v-.1ZM4.1,166v-10.2l-2.1.3v-.5l3.4-.9.2.2v11h-1.6l.1.1ZM11.9,166.3c-1.7,0-2.9-.8-3.1-2.2.1-.3.4-.5.7-.5s.6.2.8.8l.4,1.4-.5-.4c.5.3.9.4,1.6.4,1.7,0,2.6-1.1,2.6-3s-1-2.7-2.5-2.7-1.2.1-1.7.3l-.4-.2.3-5.2h5.5v1.2h-5.3l.3-.8-.3,4.7-.5-.2c.8-.4,1.5-.5,2.4-.5,2.2,0,3.6,1.1,3.6,3.3s-1.6,3.5-4,3.5l.1.1Z"/>
  <path class="cls-1" d="M1.3,214.3v-.9c1-1.1,2-2.3,2.7-3.1,1.6-1.9,2.3-2.9,2.3-4.3s-.8-2.4-2.1-2.4-1,.1-1.6.5l.6-.4-.4,1.5c-.1.7-.4.9-.8.9s-.6-.2-.7-.5c.2-1.6,1.7-2.4,3.3-2.4s3.1,1.1,3.1,2.9-1,2.5-3.4,4.8c-.5.5-1.4,1.5-2.4,2.5v-.5c.1,0,.1.2.1.2h6.1v1.2H1.3ZM9.8,214.3v-.9c1-1.1,1.9-2.3,2.7-3.1,1.6-1.9,2.3-2.9,2.3-4.3s-.8-2.4-2.1-2.4-1.1.1-1.7.5l.6-.4-.4,1.5c-.1.7-.4.9-.8.9s-.6-.2-.7-.5c.2-1.6,1.7-2.4,3.3-2.4s3.1,1.1,3.1,2.9-1,2.5-3.4,4.8c-.5.5-1.4,1.5-2.4,2.5v-.5c.1,0,.1.2.1.2h6.1v1.2h-6.9.2Z"/>
  <path class="cls-1" d="M1.3,261.5v-.9c1-1.1,2-2.3,2.7-3.1,1.6-1.9,2.3-2.9,2.3-4.3s-.8-2.4-2.1-2.4-1,.1-1.6.5l.6-.4-.4,1.5c-.1.7-.4.9-.8.9s-.6-.2-.7-.5c.2-1.6,1.7-2.4,3.3-2.4s3.1,1.1,3.1,2.9-1,2.5-3.4,4.8c-.5.5-1.4,1.5-2.4,2.5v-.5c.1,0,.1.2.1.2h6.1v1.2H1.3ZM10.5,261.8v-.4c3.2-1.2,4.7-3.4,4.7-6.7s-.9-3.9-2.1-3.9-2,1-2,2.9.9,2.8,2.3,2.8,1.5-.4,2-1.1h.3-.1c-.5,1-1.5,1.6-2.7,1.6-1.8,0-3.2-1.3-3.2-3.3s1.5-3.5,3.5-3.5,3.6,1.7,3.6,4.5-2.2,6-6.2,7l-.1.1Z"/>
</svg>