<?xml version="1.0" encoding="UTF-8"?>
<svg width="18" height="224" id="Layer_2" data-name="Layer 2" xmlns="http://www.w3.org/2000/svg" viewBox="0 0 18 224" fill="none">
  <defs>
    <style>
      .cls-1 {
        fill: #5b5651;
      }
    </style>
  </defs>
  <path class="cls-1" d="M8.82,70.2c-1.7,0-2.9-.8-3.1-2.2.1-.3.4-.5.7-.5s.6.2.8.8l.4,1.4-.5-.4c.5.3.9.4,1.6.4,1.7,0,2.6-1.1,2.6-3s-1-2.7-2.5-2.7-1.2.1-1.7.3l-.4-.2.3-5.2h5.5v1.2h-5.3l.3-.8-.3,4.7-.5-.2c.8-.4,1.5-.5,2.4-.5,2.2,0,3.6,1.1,3.6,3.3s-1.6,3.5-4,3.5l.1.1Z"/>
  <path class="cls-1" d="M2.42,118.1v-.4l2.1-.2h1.3l2,.3v.4H2.42v-.1ZM4.42,118.1v-10.2l-2.1.3v-.5l3.4-.9.2.2v11h-1.6l.1.1ZM9.32,118.1v-.9c1-1.1,2-2.3,2.7-3.1,1.6-1.9,2.3-2.9,2.3-4.3s-.8-2.4-2.1-2.4-1.1.1-1.6.5l.6-.4-.4,1.5c-.1.7-.4.9-.8.9s-.6-.2-.7-.5c.2-1.6,1.7-2.4,3.3-2.4s3.1,1.1,3.1,2.9-1,2.5-3.4,4.8c-.5.5-1.4,1.5-2.4,2.5v-.5c.1,0,.1.2.1.2h6.1v1.2h-6.9.1Z"/>
  <path class="cls-1" d="M2.42,166.1v-.4l2.1-.2h1.3l2,.3v.4H2.42v-.1ZM4.42,166.1v-10.2l-2.1.3v-.5l3.4-.9.2.2v11h-1.6l.1.1ZM10.02,166.3v-.4c3.2-1.2,4.7-3.4,4.7-6.7s-.9-3.9-2.1-3.9-2,1-2,2.9.9,2.9,2.3,2.9,1.5-.4,2-1.1h.3-.1c-.5,1-1.5,1.6-2.7,1.6-1.8,0-3.2-1.3-3.2-3.3s1.5-3.5,3.5-3.5,3.6,1.7,3.6,4.5-2.2,6-6.2,7h-.1Z"/>
  <path class="cls-1" d="M1.52,214.2v-.9c1-1.1,2-2.3,2.7-3.1,1.6-1.9,2.3-2.9,2.3-4.3s-.8-2.4-2.1-2.4-1,.1-1.6.5l.6-.4-.4,1.5c-.1.7-.4.9-.8.9s-.6-.2-.7-.5c.2-1.6,1.7-2.4,3.3-2.4s3.1,1.1,3.1,2.9-1,2.5-3.4,4.8c-.5.5-1.4,1.5-2.4,2.5v-.5c.1,0,.1.2.1.2h6.1v1.2H1.42h.1ZM13.62,214.4c-2.2,0-3.6-1.7-3.6-4.4s2.6-6.6,6.6-7v.3c-3.3.8-5.1,3.3-5.1,6.5s.8,4.1,2.1,4.1,1.9-1,1.9-3-.7-2.8-2-2.8-1.5.3-2.2,1.1l-.3-.2h.1c.8-1.1,1.8-1.6,3-1.6,1.8,0,2.9,1.3,2.9,3.3s-1.4,3.6-3.4,3.6v.1Z"/>
  <path class="cls-1" d="M5.12,22v-.5l2.2-.2h.5l2.3.2v.5h-5ZM6.62,22v-11h1.9v11.1h-1.9v-.1ZM7.52,16.7v-.5h3.7v.5h-3.7ZM11.02,18.3l-.2-1.7v-.4l.2-1.6h.6v3.7h-.6ZM5.12,11.5v-.5h2.4v.7h-.2l-2.2-.2ZM12.72,13.8l-.6-2.7.9.5h-5.5v-.6h5.9v2.8h-.7,0Z"/>
</svg>