<?xml version="1.0" encoding="UTF-8"?>
<svg id="Layer_2" data-name="Layer 2" xmlns="http://www.w3.org/2000/svg" width="33" height="224" viewBox="0 0 33 224" fill="none">
  <defs>
    <style>
      .cls-1 {
        fill: #fff;
      }

      .cls-2 {
        fill: #5b5651;
      }

      .cls-3 {
        fill: #b99493;
      }
    </style>
  </defs>
  <path class="cls-2" d="M9.82,118v-.4l2.1-.2h1.3l2,.3v.4h-5.4v-.1ZM11.82,118v-10.2l-2.1.3v-.5l3.4-.9.2.2v11h-1.6l.1.1ZM19.82,118.2c-1.8,0-3-.8-3.2-2.2.1-.3.4-.5.7-.5s.6.2.8.9l.4,1.5-.6-.5c.5.3.9.4,1.6.4,1.6,0,2.6-1,2.6-2.6s-.9-2.6-2.7-2.6h-.7v-.5h.6c1.4,0,2.4-.9,2.4-2.5s-.7-2.2-2-2.2-1,.1-1.6.4l.7-.4-.4,1.4c-.1.6-.4.7-.8.7s-.5-.1-.6-.4c.2-1.5,1.6-2.2,3.1-2.2s3.1,1.1,3.1,2.6-1,2.6-3.2,2.9v-.2c2.5.1,3.6,1.3,3.6,3s-1.5,3.1-3.7,3.1l-.1-.1Z"/>
  <path class="cls-2" d="M8.92,166.1v-.9c1-1.1,2-2.3,2.7-3.1,1.6-1.9,2.3-2.9,2.3-4.3s-.8-2.4-2.1-2.4-1,.1-1.6.5l.6-.4-.4,1.5c-.1.7-.4.9-.8.9s-.6-.2-.7-.5c.2-1.6,1.7-2.4,3.3-2.4s3.1,1.1,3.1,2.9-1,2.5-3.4,4.8c-.5.5-1.4,1.5-2.4,2.5v-.5c.1,0,.1.2.1.2h6.1v1.2h-6.9.1ZM20.72,166.3c-1.9,0-3.6-1.7-3.6-5.7s1.7-5.7,3.6-5.7,3.6,1.7,3.6,5.7-1.7,5.7-3.6,5.7ZM20.72,165.8c1.1,0,2.1-1.2,2.1-5.3s-1-5.2-2.1-5.2-2.1,1.2-2.1,5.2,1,5.3,2.1,5.3Z"/>
  <path class="cls-2" d="M9.12,214.3v-.9c1-1.1,2-2.3,2.7-3.1,1.6-1.9,2.3-2.9,2.3-4.3s-.8-2.4-2.1-2.4-1,.1-1.6.5l.6-.4-.4,1.5c-.1.7-.4.9-.8.9s-.6-.2-.7-.5c.2-1.6,1.7-2.4,3.3-2.4s3.1,1.1,3.1,2.9-1,2.5-3.4,4.8c-.5.5-1.4,1.5-2.4,2.5l.2-.5v.2h6.1v1.2h-6.9ZM18.92,214.3h-.1c0-.1,4.8-10.2,4.8-10.2l-.2.7v-.2h-5.9v-1.2h6.6v.8l-3.9,10.2h-1.3v-.1Z"/>
  <circle class="cls-3" cx="16.52" cy="63.5" r="16.5"/>
  <path class="cls-1" d="M16.72,70.3c-2.2,0-3.6-1.7-3.6-4.4s2.6-6.6,6.6-7v.3c-3.3.8-5.1,3.3-5.1,6.5s.8,4.1,2.1,4.1,1.9-1,1.9-3-.7-2.8-2-2.8-1.5.3-2.2,1.1l-.3-.2h.1c.8-1.1,1.8-1.6,3-1.6,1.8,0,2.9,1.3,2.9,3.3s-1.4,3.6-3.4,3.6v.1Z"/>
  <path class="cls-2" d="M16.22,22.3c-1.2,0-2.5-.4-3.3-.9v-2.4h.8l.6,2.7-.8-.4v-.5c.9.7,1.5.9,2.5.9,1.6,0,2.6-.7,2.6-2.1s-.5-1.6-2-2.2l-.7-.3c-1.9-.8-2.9-1.8-2.9-3.4s1.6-3,3.7-3,2.1.3,2.8.8v2.2h-.8l-.6-2.6.9.4v.5c-.7-.6-1.2-.9-2.1-.9-1.4,0-2.3.7-2.3,1.9s.7,1.7,1.8,2.2l.7.3c2.3,1,3,1.8,3,3.4s-1.5,3.2-4,3.2l.1.2Z"/>
  <g>
    <path class="cls-3" d="M8.32,85.7h0l-1.3.7-.2-.7,1.6-.8h.8v7.3h-.9v-6.5Z"/>
    <path class="cls-3" d="M12.32,88.4v-1.8h.9v.9h0c.4-.7,1-1,1.9-1,1.3,0,2.3,1.1,2.3,2.7s-1.2,2.9-2.5,2.9-1.3-.3-1.7-.8h0v2.9h-1v-5.8h.1ZM13.22,89.9v.4c.2.7.8,1.1,1.5,1.1,1,0,1.6-.8,1.6-2.1s-.6-2-1.6-2-1.3.5-1.5,1.2v1.4Z"/>
    <path class="cls-3" d="M18.62,88.1v-1.5h.9v.9h0c.3-.5.8-1,1.7-1s1.3.4,1.5,1.1h0c.2-.3.4-.5.6-.7.3-.2.7-.4,1.2-.4s1.8.5,1.8,2.3v3.2h-1v-3.1c0-1-.4-1.7-1.2-1.7s-1,.4-1.2.9v3.8h-1v-3.2c0-.9-.4-1.5-1.1-1.5s-1.1.5-1.2,1v3.8h-1v-3.9h0Z"/>
  </g>
</svg>