<?xml version="1.0" encoding="UTF-8"?>
<svg id="Layer_2" data-name="Layer 2" xmlns="http://www.w3.org/2000/svg" width="18" height="272" viewBox="0 0 18 272" fill="none">
  <defs>
    <style>
      .cls-1 {
        fill: #d95858;
      }
    </style>
  </defs>
  <path class="cls-1" d="M7.9,70h-.1c0-.1,4.8-10.2,4.8-10.2l-.2.7v-.2h-5.9v-1.2h6.6v.8l-3.9,10.2h-1.3v-.1Z"/>
  <path class="cls-1" d="M2.7,118v-.4l2.1-.2h1.3l1.9.3v.4H2.6l.1-.1ZM4.7,118v-10.2l-2.1.3v-.5l3.4-.9.2.2v11h-1.6l.1.1ZM13.8,118.2v-10.4h-.2l.5-.2-2.1,3.3-2.3,3.5v-.5c.1,0,.1.2.1.2h7v1h-7.7v-.8l4.9-7.5h1v11.4h-1.3.1Z"/>
  <path class="cls-1" d="M2.8,166.2v-.9c1-1.1,1.9-2.3,2.7-3.1,1.6-1.9,2.3-2.9,2.3-4.3s-.8-2.4-2.1-2.4-1.1.1-1.7.5l.6-.4-.4,1.5c-.1.7-.4.9-.8.9s-.6-.2-.7-.5c.2-1.6,1.7-2.4,3.3-2.4s3.1,1.1,3.1,2.9-1,2.5-3.4,4.8c-.5.5-1.4,1.5-2.4,2.5v-.5c.1,0,.1.2.1.2h6.1v1.2H2.6h.2ZM11.4,166.2v-.4l2.1-.2h1.3l1.9.3v.4h-5.4l.1-.1ZM13.4,166.2v-10.2l-2.1.3v-.5l3.4-.9.2.2v11h-1.6l.1.1Z"/>
  <path class="cls-1" d="M2.1,214.2v-.9c1-1.1,2-2.3,2.7-3.1,1.6-1.9,2.3-2.9,2.3-4.3s-.8-2.4-2.1-2.4-1.1.1-1.7.5l.6-.4-.4,1.5c-.1.7-.4.9-.8.9s-.6-.2-.7-.5c.2-1.6,1.7-2.4,3.3-2.4s3.1,1.1,3.1,2.9-1,2.5-3.4,4.8c-.5.5-1.4,1.5-2.4,2.5v-.5c.1,0,.1.2.1.2h6.1v1.2H1.9h.2ZM13.9,214.4c-2.2,0-3.3-1.1-3.3-2.6s.9-2.3,2.8-3h0l.3.1c-1.3.8-1.8,1.6-1.8,2.7s.8,2.3,2.1,2.3,2.1-.8,2.1-2-.6-2-2.7-2.9c-1.8-.8-2.5-1.9-2.5-3.3s1.4-2.8,3.2-2.8,3,1.1,3,2.5-.7,2.1-2.5,2.9h0l-.3-.1c1.1-.8,1.6-1.6,1.6-2.8s-.6-2-1.8-2-1.8.7-1.8,1.9.5,2,2.4,2.8c2.1.9,2.9,1.9,2.9,3.4s-1.4,2.9-3.5,2.9h-.2Z"/>
  <path class="cls-1" d="M9.4,22.2c-1.2,0-2.5-.4-3.3-.9v-2.4h.8l.6,2.7-.8-.4v-.5c.9.7,1.5.9,2.5.9,1.6,0,2.6-.7,2.6-2.1s-.5-1.6-1.9-2.2l-.7-.3c-1.9-.8-2.9-1.8-2.9-3.4s1.6-3,3.7-3,2.1.3,2.8.8v2.2h-.8l-.6-2.6.9.4v.5c-.7-.6-1.2-.9-2.1-.9-1.4,0-2.3.7-2.3,1.9s.7,1.7,1.8,2.2l.7.3c2.3,1,3,1.8,3,3.4s-1.5,3.2-4,3.2v.2Z"/>
</svg>