<?xml version="1.0" encoding="UTF-8"?>
<svg id="Layer_2" data-name="Layer 2" xmlns="http://www.w3.org/2000/svg" width="18" height="224" viewBox="0 0 18 224" fill="none" >
  <defs>
    <style>
      .cls-1 {
        fill: #5b5651;
      }
    </style>
  </defs>
  <path class="cls-1" d="M9.74,70.3v-10.4h-.2l.5-.2-2.2,3.3-2.3,3.5v-.5c.1,0,.1.2.1.2h7v1h-7.6v-.8l4.9-7.5h1v11.4h-1.3.1Z"/>
  <path class="cls-1" d="M2.84,118.1v-.4l2.1-.2h1.3l2,.3v.4H2.84v-.1ZM4.74,118.1v-10.2l-2.1.3v-.5l3.4-.9.2.2v11h-1.6l.1.1ZM9.84,118.1v-.4l2.1-.2h1.3l1.9.3v.4h-5.4l.1-.1ZM11.84,118.1v-10.2l-2.1.3v-.5l3.4-.9.2.2v11h-1.6l.1.1Z"/>
  <path class="cls-1" d="M2.14,166.1v-.4l2.1-.2h1.3l2,.3v.4H2.14v-.1ZM4.14,166.1v-10.2l-2.1.3v-.5l3.4-.9.2.2v11h-1.6l.1.1ZM12.34,166.3c-2.2,0-3.3-1.1-3.3-2.6s.9-2.3,2.8-3h0l.3.1c-1.3.8-1.8,1.6-1.8,2.7s.8,2.3,2.1,2.3,2.1-.8,2.1-2-.6-2-2.7-2.9c-1.8-.8-2.5-1.9-2.5-3.3s1.4-2.8,3.2-2.8,3,1.1,3,2.5-.7,2.1-2.5,2.9h0l-.3-.1c1.1-.8,1.6-1.6,1.6-2.8s-.6-2-1.8-2-1.8.7-1.8,1.9.5,2,2.4,2.8c2.1.9,2.9,1.9,2.9,3.4s-1.4,2.9-3.5,2.9h-.2Z"/>
  <path class="cls-1" d="M1.34,214.2v-.9c.5-.6,1-1.1,1.4-1.7.5-.6.9-1,1.2-1.5.5-.6,1-1.2,1.3-1.7s.6-.9.7-1.4c.2-.4.2-.9.2-1.3,0-.8-.2-1.3-.6-1.7s-.9-.6-1.5-.6-.5,0-.8.1c-.3,0-.5.2-.8.4l.6-.4-.4,1.5c0,.3-.2.6-.3.7-.1.1-.3.2-.5.2s-.3,0-.4-.1c-.1,0-.2-.2-.3-.4,0-.5.3-1,.6-1.3.3-.4.7-.6,1.2-.8s1-.3,1.5-.3c1,0,1.8.3,2.3.8s.8,1.2.8,2.1-.1.9-.3,1.4c-.2.4-.6.9-1.1,1.5-.5.5-1.1,1.2-1.9,2-.2.1-.4.4-.6.6-.2.3-.5.6-.8.9-.3.3-.6.6-.9,1v-.5c.1,0,.1.2.1.2h6.1v1.2H1.24h.1ZM12.64,214.4c-.9,0-1.6-.2-2.1-.6-.5-.4-.9-.9-1-1.6,0-.2.1-.3.3-.4s.3-.1.4-.1.4,0,.5.2c.1.1.2.3.3.6l.4,1.4-.5-.4c.3.1.5.2.7.3h.8c.8,0,1.5-.3,1.9-.8.5-.5.7-1.3.7-2.2s-.2-1.6-.7-2c-.4-.4-1.1-.7-1.8-.7h-.9c-.3,0-.6.1-.8.3l-.4-.2.4-5.2h5.5v1.2h-5.2l.3-.8-.3,4.7h-.5c.4-.3.8-.5,1.2-.6.4,0,.8-.1,1.2-.1,1.1,0,2,.3,2.7.8.7.6,1,1.4,1,2.5s-.2,1.3-.5,1.9c-.3.5-.8.9-1.4,1.2-.6.3-1.3.4-2.1.4l-.1.2Z"/>
  <path class="cls-1" d="M6.44,22v-.5l2.3-.2h.5l2.3.2v.5h-5.1ZM8.04,22v-11h1.9v11h-1.9ZM4.24,14v-3h9.4v3c.1,0-.6,0-.6,0l-.7-3,.8.6H4.74l.9-.6-.7,3h-.7Z"/>
</svg>