<?xml version="1.0" encoding="UTF-8"?>
<svg id="Layer_2" data-name="Layer 2" xmlns="http://www.w3.org/2000/svg" width="18" height="272" viewBox="0 0 18 272" fill="none">
  <defs>
    <style>
      .cls-1 {
        fill: #5b5651;
      }
    </style>
  </defs>
  <path class="cls-1" d="M5.33,70.1v-.9c1-1.1,2-2.3,2.7-3.1,1.6-1.9,2.3-2.9,2.3-4.3s-.8-2.4-2.1-2.4-1.1.1-1.7.5l.6-.4-.4,1.5c-.1.7-.4.9-.8.9s-.6-.2-.7-.5c.2-1.6,1.7-2.4,3.3-2.4s3.1,1.1,3.1,2.9-1,2.5-3.4,4.8c-.5.5-1.4,1.5-2.4,2.5v-.5c.1,0,.1.2.1.2h6.1v1.2h-6.9.2Z"/>
  <path class="cls-1" d="M6.03,118.2v-.4c3.2-1.2,4.7-3.4,4.7-6.7s-.9-3.9-2.1-3.9-2,1-2,2.9.9,2.8,2.3,2.8,1.5-.4,2-1.1h.3-.1c-.5,1-1.5,1.6-2.7,1.6-1.8,0-3.2-1.3-3.2-3.3s1.5-3.5,3.5-3.5,3.6,1.7,3.6,4.5-2.2,6-6.2,7l-.1.1Z"/>
  <path class="cls-1" d="M1.83,166.1v-.4l2.1-.2h1.3l2,.3v.4H1.83v-.1ZM3.83,166.1v-10.2l-2.1.3v-.5l3.4-.9.2.2v11h-1.6l.1.1ZM12.23,166.3c-2.2,0-3.6-1.7-3.6-4.4s2.6-6.6,6.6-7v.3c-3.3.8-5.1,3.3-5.1,6.5s.8,4.1,2.1,4.1,1.9-1,1.9-3-.7-2.8-2-2.8-1.5.3-2.2,1.1l-.3-.2h.1c.8-1.1,1.8-1.6,3-1.6,1.8,0,2.9,1.3,2.9,3.3s-1.4,3.6-3.4,3.6v.1Z"/>
  <path class="cls-1" d="M1.13,214.2v-.9c1-1.1,2-2.3,2.7-3.1,1.6-1.9,2.3-2.9,2.3-4.3s-.8-2.4-2.1-2.4-1,.1-1.6.5l.6-.4-.4,1.5c-.1.7-.4.9-.8.9s-.6-.2-.7-.5c.2-1.6,1.7-2.4,3.3-2.4s3.1,1.1,3.1,2.9-1,2.5-3.4,4.8c-.5.5-1.4,1.5-2.4,2.5v-.5c.1,0,.1.2.1.2h6.1v1.2H1.03h.1ZM12.73,214.4c-1.8,0-3-.8-3.2-2.2.1-.3.4-.5.7-.5s.6.2.8.9l.4,1.5-.6-.5c.5.3.9.4,1.6.4,1.6,0,2.6-1,2.6-2.6s-.9-2.6-2.7-2.6h-.7v-.5h.6c1.4,0,2.4-.9,2.4-2.5s-.7-2.2-2-2.2-1,.1-1.6.4l.7-.4-.4,1.4c-.1.6-.4.7-.8.7s-.5-.1-.6-.4c.2-1.5,1.6-2.2,3.1-2.2s3.1,1.1,3.1,2.6-1,2.6-3.2,2.9v-.2c2.5.1,3.6,1.3,3.6,3s-1.5,3.1-3.7,3.1l-.1-.1Z"/>
  <path class="cls-1" d="M4.13,261.8c-1.8,0-3-.8-3.2-2.2.1-.3.4-.5.7-.5s.6.2.8.9l.4,1.5-.6-.5c.5.3.9.4,1.6.4,1.7,0,2.6-1,2.6-2.6s-.9-2.6-2.7-2.6h-.7v-.5h.6c1.4,0,2.4-.9,2.4-2.5s-.7-2.2-2-2.2-1,.1-1.6.4l.7-.4-.4,1.4c-.1.6-.4.7-.8.7s-.5-.1-.6-.4c.2-1.5,1.6-2.2,3.1-2.2s3.1,1.1,3.1,2.6-1,2.6-3.2,2.9v-.2c2.5.1,3.6,1.3,3.6,3s-1.5,3.1-3.7,3.1l-.1-.1ZM13.03,261.8c-1.9,0-3.6-1.7-3.6-5.7s1.7-5.7,3.6-5.7,3.6,1.7,3.6,5.7-1.7,5.7-3.6,5.7ZM13.03,261.3c1.1,0,2.1-1.2,2.1-5.3s-1.1-5.2-2.1-5.2-2.1,1.2-2.1,5.2,1,5.3,2.1,5.3Z"/>
  <path class="cls-1" d="M6.23,22v-.5l2.3-.2h.5l2.3.2v.5h-5.1ZM7.83,22v-11h1.9v11h-1.9ZM3.93,14v-3h9.4v3c.1,0-.6,0-.6,0l-.7-3,.8.6H4.43l.9-.6-.7,3h-.7Z"/>
</svg>